<?xml version="1.0" encoding="UTF-8" standalone="no"?>
<svg
   viewBox="0 0 500 500"
   width="500"
   height="500"
   version="1.1"
   id="svg10"
   sodipodi:docname="Nebulika_logo.svg"
   inkscape:version="1.1.2 (0a00cf5339, 2022-02-04)"
   xmlns:inkscape="http://www.inkscape.org/namespaces/inkscape"
   xmlns:sodipodi="http://sodipodi.sourceforge.net/DTD/sodipodi-0.dtd"
   xmlns="http://www.w3.org/2000/svg"
   xmlns:svg="http://www.w3.org/2000/svg">
  <defs
     id="defs14" />
  <sodipodi:namedview
     id="namedview12"
     pagecolor="#ffffff"
     bordercolor="#666666"
     borderopacity="1.0"
     inkscape:pageshadow="2"
     inkscape:pageopacity="0.0"
     inkscape:pagecheckerboard="0"
     showgrid="false"
     inkscape:zoom="1.522"
     inkscape:cx="250"
     inkscape:cy="249.67148"
     inkscape:window-width="1920"
     inkscape:window-height="1008"
     inkscape:window-x="0"
     inkscape:window-y="0"
     inkscape:window-maximized="1"
     inkscape:current-layer="svg10" />
  <rect
     x="0"
     y="0"
     width="500"
     height="500"
     fill="white"
     id="rect2" />
  <path
     style="fill:none;fill-opacity:1;stroke:#a900cc;stroke-width:24;"
     transform="translate(-30, -20) scale(1)"
     d="M 100 50             H 250             A 40 40 0 0 1 290 90             V 400             A 40 40 0 0 1 260 440             H 100             A 40 40 0 0 1 60 400             V 90             A 40 40 0 0 1 100 50             Z"
     id="path4" />
  <g
     id="g1306"
     transform="translate(-30,-20)">
    <path
       d="m 100,50 h 150 a 40,40 0 0 1 40,40 v 310 a 40,40 0 0 1 -30,40 H 100 A 40,40 0 0 1 60,400 V 90 a 40,40 0 0 1 40,-40 z"
       fill="none"
       stroke="#a900cc"
       stroke-width="24"
       id="path1294" />
    <path
       style="fill:none;stroke:#a900cc;stroke-width:20;stroke-linecap:round;stroke-linejoin:round"
       d="m 135,85 h 80"
       id="path1296" />
  </g>
  <g
     id="g1201"
     transform="matrix(0.888613,0,0,0.888613,86.44146,52.070606)">
    <path
       style="fill:#ffffff;fill-opacity:1;stroke:#ffffff;stroke-width:50;stroke-linecap:round;stroke-linejoin:round;stroke-miterlimit:8;stroke-dasharray:none;stroke-opacity:1"
       d="m 100,280 h 260 a 80,80 0 0 0 0,-160 101.23958,78.741892 12 0 0 -200,-30 42,42 0 0 0 -60,40 75,75 0 0 0 0,150 z"
       id="path1186" />
    <path
       style="fill:none;fill-opacity:1;stroke:#a900cc;stroke-width:25;stroke-linecap:round;stroke-linejoin:round;stroke-miterlimit:8;stroke-dasharray:none;stroke-opacity:1"
       d="m 100,280 h 260 a 80,80 0 0 0 0,-160 101.23958,78.741892 12 0 0 -200,-30 42,42 0 0 0 -60,40 75,75 0 0 0 0,150 z"
       id="path1188" />
    <path
       style="fill:none;stroke:#a900cc;stroke-width:25;stroke-linecap:round;stroke-linejoin:round"
       d="m 160,180 40,40 90,-90"
       id="path1190" />
  </g>
</svg>
